<?xml version="1.0" encoding="utf-8"?>
<!-- Generator: Adobe Illustrator 23.0.2, SVG Export Plug-In . SVG Version: 6.00 Build 0)  -->
<svg version="1.1" id="レイヤー_1" xmlns="http://www.w3.org/2000/svg" xmlns:xlink="http://www.w3.org/1999/xlink" x="0px"
	 y="0px" viewBox="0 0 1212.97 128.48" width="1212.97" height="128.48" style="enable-background:new 0 0 1212.97 128.48;" xml:space="preserve">
<g>
	<defs>
		<circle id="SVGID_1_" cx="64" cy="64" r="64"/>
	</defs>
	<clipPath id="SVGID_2_">
		<use xlink:href="#SVGID_1_"  style="overflow:visible;"/>
	</clipPath>
	<rect y="102" style="clip-path:url(#SVGID_2_);fill:#1A6C82;" width="128" height="26"/>
	<rect y="26" style="clip-path:url(#SVGID_2_);fill:#81C7D3;" width="128" height="25"/>
	<rect style="clip-path:url(#SVGID_2_);fill:#1A6C82;" width="128" height="26"/>
	<rect y="77" style="clip-path:url(#SVGID_2_);fill:#A9434E;" width="128" height="25"/>
	<rect y="51" style="clip-path:url(#SVGID_2_);fill:#C7B299;" width="128" height="26"/>
</g>
<g>
	<path style="fill:#FFFFFF;" d="M99.46,37.83L88.75,48.04c-7.29-7.7-15.48-11.55-24.59-11.55c-7.69,0-14.16,2.63-19.42,7.88
		c-5.26,5.25-7.9,11.73-7.9,19.43c0,5.36,1.17,10.13,3.5,14.29c2.33,4.16,5.63,7.43,9.89,9.8c4.26,2.37,9,3.56,14.21,3.56
		c4.44,0,8.5-0.83,12.18-2.49c3.68-1.66,7.72-4.68,12.13-9.06l10.38,10.83c-5.94,5.8-11.56,9.82-16.84,12.06
		c-5.29,2.24-11.32,3.36-18.1,3.36c-12.51,0-22.74-3.96-30.71-11.89c-7.97-7.93-11.95-18.09-11.95-30.49
		c0-8.02,1.81-15.15,5.44-21.38c3.63-6.23,8.82-11.25,15.59-15.04c6.76-3.79,14.05-5.69,21.85-5.69c6.64,0,13.02,1.4,19.17,4.2
		S95.01,32.66,99.46,37.83z"/>
</g>
<path style="fill:#FFFFFF;" d="M724.52,102.72c-29.04,0-57.48,0-86.49,0c14.43-25.26,28.66-50.19,43.23-75.69
	C695.71,52.33,709.99,77.3,724.52,102.72z"/>
<g>
	<path style="fill:#FFFFFF;" d="M545.2,102.72c-1.7-6.89-3.28-13.33-4.85-19.69c0.57-0.27,0.87-0.47,0.92-0.42
		c5.16,5.05,11.2,2.64,16.77,1.56c14.73-2.86,28.66-7.91,40.89-16.92c5.7-4.2,10.58-9.16,14.17-15.33c0.83-1.43,1.65-3.42,3.86-2.34
		c2.15,1.05,1.7,2.86,0.9,4.71c-6.19,14.33-16.52,25.04-29.38,33.46c-11.63,7.61-24.4,12.32-38.21,14.14
		C548.68,102.1,547.11,102.4,545.2,102.72z"/>
	<path style="fill:#FFFFFF;" d="M539.71,22.15c10.46,6.77,18.83,14.72,25.33,25.67c-10.78-3.18-20.75-6.11-31.26-9.21
		C535.56,33.68,537.55,28.16,539.71,22.15z"/>
</g>
<g>
	<path style="fill:#FFFFFF;" d="M312.86,93.51c-3.34,1.08-6.86,2.21-10.19,3.28c-1.25-3.39-2.07-6.51-3.52-9.33
		c-2.03-3.95-6.55-6.25-9.8-5.55c-3.29,0.71-4.91,3.06-5.53,6.07c-0.67,3.29-0.46,6.63,2.53,8.8c1.6,1.16,3.62,2.18,5.54,2.37
		c7.84,0.78,15.49,0.01,22.6-3.86c8.83-4.81,12.58-16,8.67-26.16c-3.86-10.04-13.87-15.58-23.82-12.92
		c-5.78,1.55-11.45,3.52-17.61,5.44c1.7-3.55,3.27-6.84,4.94-10.33c1.97,0.84,3.71,1.59,5.62,2.4c5.32-10.04,8.2-20.74,9.5-32.27
		c6.53,2.36,12.64,4.57,18.99,6.86c-5.51,9.19-12.72,16.38-21.12,23.31c3.68-0.18,6.79-0.49,9.9-0.45
		c10.09,0.11,19.16,3.18,25.22,11.54c8.26,11.39,7.77,29.82-12.03,36.64c-12.68,4.37-25.69,5.34-38.84,2.43
		c-2.24-0.49-4.45-1.7-6.33-3.06c-5.65-4.08-5.82-11.23-0.57-15.85c8.51-7.49,29.79-6.51,35.83,9.08
		C312.96,92.24,312.86,92.6,312.86,93.51z"/>
	<path style="fill:#FFFFFF;" d="M273.28,29.9c-0.48-2.12-0.98-4.36-1.65-7.34c8.88,4.47,17.78,1.7,26.45,2.86
		c-0.08,1.15-0.16,2.2-0.28,3.86c-4.05,0-8.1-0.08-12.14,0.02C281.69,29.4,277.72,29.68,273.28,29.9z"/>
</g>
<g>
	<path style="fill:#FFFFFF;" d="M404.85,67.38c6.96,0,13.69,0.32,20.35-0.18c2.23-0.17,4.3-2.42,6.42-3.7
		c2.19,2.32,4.65,4.93,7.2,7.64c-11.13,0-22.41,0-34.21,0c0,1.57,0,2.82,0,4.06c0,5.41,0.1,10.83-0.03,16.24
		c-0.12,4.85-0.43,9.68,4.32,13.12c-0.22,0.23-0.45,0.46-0.67,0.69c-6.84-1.11-13.67-2.23-19.74-3.21c0.43-4.26,1.1-7.92,1.12-11.58
		c0.1-20.02,0.01-40.05,0.09-60.07c0.01-3.23-0.01-6.25-2.82-8.49c-0.45-0.36-0.63-1.05-1.35-2.33c7.37,1.15,14.06,2.19,20.32,3.17
		c-0.58,5.36-1.14,10.48-1.76,16.13c5.9,0,11.18,0.3,16.38-0.17c1.67-0.15,3.16-2.36,4.87-3.74c2.47,2.64,5,5.35,7.7,8.23
		c-9.31,0-18.64,0-28.2,0C404.85,51.34,404.85,59.17,404.85,67.38z"/>
	<path style="fill:#FFFFFF;" d="M361.13,71.65c-0.4-1.69-0.98-4.11-1.79-7.5c9.21,5.22,18.41,2.39,27.48,3.44
		c0.07,0.54,0.19,1.13,0.23,1.73c0.03,0.53-0.05,1.06-0.12,2.33C378.49,71.65,370.07,71.65,361.13,71.65z"/>
	<path style="fill:#FFFFFF;" d="M365.92,37.62c7.06,0.62,13.82,1.22,20.98,1.85c0.05,1.01,0.11,2.24,0.19,3.88
		c-3.28,0-6.39-0.08-9.49,0.03c-2.35,0.08-4.7,0.35-7.04,0.6c-2.15,0.24-3.84,0.12-3.83-2.77C366.72,39.9,366.14,38.58,365.92,37.62
		z"/>
</g>
<g>
	<path style="fill:#FFFFFF;" d="M198.22,21.84c7.04,1.21,13.75,2.37,20.54,3.54c-2.89,5.67-1.14,11.46-0.86,17.12
		c0.68,13.47,1.75,26.95-1.15,40.27c-2.37,10.9-9.9,17.23-19.92,20.94c-2.99,1.11-6.13,1.86-9.26,2.46
		c-0.88,0.17-1.97-0.77-2.97-1.21c0.56-0.86,0.92-2.06,1.71-2.52c3.49-2.02,7.47-3.38,10.61-5.82c6.26-4.86,7.92-12.23,8.13-19.57
		c0.3-10.55-0.13-21.13-0.59-31.68c-0.25-5.56-0.92-11.16-2.03-16.61C201.95,26.44,199.86,24.44,198.22,21.84z"/>
	<path style="fill:#FFFFFF;" d="M220.27,41.12c-0.16-2.22-0.31-4.26-0.51-6.89c1.83,0.23,3.68,0.27,5.44,0.72
		c11.75,3,21.29,8.89,25.42,20.97c4.31,12.6-0.78,25.57-12.77,33.05c-7.25,4.53-15.22,6.65-24.19,6.36
		c2.14-3.59,3.75-6.66,7.89-8.46c9.51-4.14,14.67-12.11,14.65-22.42c-0.02-10.17-4.53-18.22-14.39-22.48
		C221.32,41.76,220.87,41.45,220.27,41.12z"/>
	<path style="fill:#FFFFFF;" d="M200.76,35.03c1.19,3.84,0.36,5.42-2.82,6.53c-3.07,1.07-5.81,3.18-8.56,5.03
		c-2.27,1.53-3.34,3.64-3.12,6.61c0.3,4.08,0.08,8.21,0.08,12.81c-4.62,0.57-9.21,1.13-14.27,1.75c0-2.73,0-4.96,0-7.2
		c0-7.68-0.09-15.36,0.04-23.04c0.05-2.94-0.24-5.55-2.67-7.57c-0.53-0.44-0.77-1.24-1.45-2.38c7.08,1.21,13.65,2.33,19.96,3.4
		c-0.74,4.03-1.44,7.84-2.21,12.05C191.11,40.18,195.82,37.67,200.76,35.03z"/>
	<path style="fill:#FFFFFF;" d="M188.97,81.54c3.8,2.74,7.1,5.12,10.6,7.63c-0.99,3.49-1.32,3.61-5.14,1.76
		c-3.54-1.72-7.13-3.37-11.09-5.24C185.4,84.17,187.45,82.66,188.97,81.54z"/>
</g>
<g>
	<path style="fill:#FFFFFF;" d="M485.68,106.19c-5.36-0.91-10.71-1.81-15.99-2.71c2.74-10.2,0.61-20.24,1.51-30.41
		c-3.81,0-7.29,0-11.4,0c-0.41-1.5-0.94-3.46-1.48-5.48c4.24,0.65,8.16,1.25,12.9,1.98c-1.23-7.55,2.36-14.8-3.74-21.91
		c6.39,1.03,11.85,1.9,16.6,2.67c-0.36,3.86-0.91,7.19-0.94,10.53c-0.11,10.82-0.06,21.65-0.03,32.47
		c0.01,4.32-0.97,8.88,3.23,12.32C486.11,105.83,485.9,106.01,485.68,106.19z"/>
	<path style="fill:#FFFFFF;" d="M491.67,92.56c2.87-9.63,5.48-18.4,8.18-27.48c4.25,1.53,9.16,3.29,14.42,5.17
		C508.38,79.41,501.25,86.73,491.67,92.56z"/>
	<path style="fill:#FFFFFF;" d="M495.3,69.25c0.97,3.81-0.19,3.87-9.42,3.22c-0.04-0.98-0.09-2-0.14-3.22
		C489.05,69.25,492.12,69.25,495.3,69.25z"/>
</g>
<g>
	<path style="fill:#FFFFFF;" d="M800.05,47.89c0,12.68,0.26,22.88,0.58,30.55c0.26,7.35,0.58,12.16,0.84,16.19
		c0.13-3.25,0.39-5.59,0.58-8.32c0.07-1.24,0.85-1.69,2.02-1.37l1.95,0.52c0.97,0.26,1.5,0.97,1.43,2.01
		c-0.2,3.38-0.52,6.05-1.04,8.26s-1.04,3.64-2.08,4.75c-0.33,0.39-1.63,1.04-3.12,1.04c-2.54,0-4.09-1.3-4.94-4.1
		c-1.1-3.58-1.56-7.74-1.95-15.93c-0.39-8.38-0.52-17.42-0.52-32.18h-36.47v21.39c0,15.54-1.37,23.21-5.46,30.16
		c-0.58,1.04-1.5,1.17-2.41,0.39l-1.82-1.56c-0.84-0.71-0.97-1.5-0.52-2.41c2.86-5.85,3.96-13.39,3.96-28.47V47.89
		c0-1.17,0.58-1.75,1.76-1.75h45.44C799.46,46.14,800.05,46.79,800.05,47.89z M760.72,57.51c-1.11,0.06-1.76-0.52-1.82-1.63
		c-0.07-0.91,0.52-1.43,1.69-1.5c9.23-0.26,19.05-0.91,29.45-2.02c1.11-0.13,1.75,0.33,1.95,1.37c0.13,0.98-0.46,1.63-1.63,1.75
		c-4.62,0.46-8.52,0.78-11.7,1.04v7.54h11.12c1.17,0,1.75,0.58,1.75,1.75v13.39c0,1.17-0.58,1.75-1.75,1.75h-11.12v12.68l7.93-0.98
		c-1.1-2.21-1.88-3.96-2.47-5.2c-0.52-1.1-0.2-1.88,0.97-2.27l1.89-0.65c1.04-0.33,1.82-0.07,2.34,0.91
		c2.21,4.35,4.09,8.32,5.79,12.03c0.46,1.1,0.07,1.88-1.04,2.28l-2.08,0.71c-1.04,0.33-1.82,0-2.28-1.04
		c-0.84-1.82-1.36-3.12-1.69-3.77c-10.53,1.63-20.48,2.73-29.64,3.19c-1.17,0.06-1.75-0.52-1.82-1.69
		c-0.07-1.04,0.52-1.63,1.69-1.69c4.03-0.19,8.65-0.52,14.17-1.1V80.98h-6.89v1.43c0,1.17-0.58,1.76-1.75,1.76h-2.54
		c-1.17,0-1.75-0.59-1.75-1.76V65.83c0-1.17,0.58-1.75,1.75-1.75h11.18v-7.09C768.85,57.25,764.95,57.38,760.72,57.51z
		 M772.42,67.07h-6.89v10.92h6.89V67.07z M785.49,67.07h-6.83v10.92h6.83V67.07z"/>
</g>
<g>
	<path style="fill:#FFFFFF;" d="M899.66,75.43c-4.88,12.97-14.33,22.43-30.13,27.11c-1.85,0.59-3.02,0.1-3.51-1.27
		c-0.58-1.37,0.1-2.44,1.85-3.22c12.77-5.66,18.62-12.48,22.23-24.96c1.27-4.29,2.05-8.78,2.34-13.36h-35.69
		c-3.61,0-3.61-5.27,0-5.27h35.69V36.13c-8.87,1.95-15.6,3.22-24.67,4.1c-1.85,0.19-2.92-0.39-3.22-1.76
		c-0.29-1.27,0.58-2.15,2.44-2.54c15.6-3.22,30.23-7.51,48.95-15.5c1.75-0.78,3.12-0.19,3.9,1.46l1.17,2.54
		c0.78,1.76,0.19,3.12-1.66,3.9c-8.97,3.31-12.48,4.29-16.48,5.56l-0.29,20.57h29.64c3.61,0,3.61,5.27,0,5.27h-29.74
		C902.29,64.9,901.02,70.26,899.66,75.43z"/>
	<path style="fill:#FFFFFF;" d="M1009.68,55.81c0.55,1.09,0.45,2.18-0.55,3.37c-1.82,2.37-5.37,6.64-9.01,11.19
		c-1.73,2.18-5.64,6.55-7.92,9.1c-1.09,1.18-2.28,1.46-3.55,0.64c-1.27-0.73-1.46-2-0.46-3.55c3.91-6.19,7.92-13.47,8.83-15.02
		l-20.29,4.37c0.36,1.73,4.09,21.29,7.01,34.13c0.36,1.73-0.27,2.91-1.91,3.37l-2.91,0.73c-1.73,0.46-2.91-0.27-3.28-2l-6.55-34.67
		l-16.02,3.82c-1.73,0.46-2.82-0.18-3.19-1.82c-0.36-1.64,0.36-2.64,2.09-3l16.29-3.55c-0.18-1-1.55-8.83-3.28-15.93
		c-0.46-1.82,0.27-3,2.09-3.37l2.91-0.55c1.82-0.36,2.91,0.55,3.18,2.28c1.18,7.19,2.64,15.29,2.91,16.38l30.4-6.92
		C1008.13,54.44,1009.13,54.81,1009.68,55.81z"/>
	<path style="fill:#FFFFFF;" d="M1038.89,71.83c-1.64-5.46-3.73-10.46-6.37-15.56c-1.64-3.19,2.73-4.91,4.73-2.64
		c4.09,4.55,7.01,9.37,10.1,14.83c1,1.64,0.55,2.64-1.18,3.28l-4.28,1.64C1040.34,74.01,1039.34,73.46,1038.89,71.83z
		 M1089.67,53.26c-7.19,23.21-17.11,38.77-40.5,50.33c-1.55,0.73-2.82,0.46-3.55-0.73c-0.82-1.27-0.27-2.37,1.27-3.28
		c20.2-11.56,27.03-25.66,33.49-49.32c0.45-1.73,1.64-2.37,3.37-1.82l4.19,1.37C1089.58,50.35,1090.21,51.53,1089.67,53.26z
		 M1056.91,65.09c-1.64-5.64-3.64-10.92-6.46-16.38c-1.64-3.19,3-5.1,4.91-2.73c4,4.91,7.01,9.65,10.28,16.02
		c0.82,1.64,0.36,2.64-1.27,3.19l-4.37,1.55C1058.36,67.28,1057.36,66.73,1056.91,65.09z"/>
	<path style="fill:#FFFFFF;" d="M1174.04,75.04c-13.16-8.78-25.35-16.28-35.2-21.45v46.02c0,1.75-1.27,3.02-3.02,3.02h-3.71
		c-1.76,0-3.02-1.27-3.02-3.02V25.02c0-1.75,1.27-3.02,3.02-3.02h3.71c1.75,0,3.02,1.27,3.02,3.02v23.01
		c11.7,4.1,24.67,9.95,40.17,18.43c1.56,0.88,2.05,2.63,1.27,4.1l-1.85,3.41C1177.55,75.53,1175.69,76.11,1174.04,75.04z"/>
</g>
</svg>
