<?xml version="1.0" encoding="utf-8"?>
<!-- Generator: Adobe Illustrator 23.0.2, SVG Export Plug-In . SVG Version: 6.00 Build 0)  -->
<svg version="1.1" id="レイヤー_1" xmlns="http://www.w3.org/2000/svg" xmlns:xlink="http://www.w3.org/1999/xlink" x="0px"
	 y="0px" viewBox="0 0 128 128" width="128" height="128" style="enable-background:new 0 0 128 128;" xml:space="preserve">
<g>
	<defs>
		<circle id="SVGID_1_" cx="64" cy="64" r="64"/>
	</defs>
	<clipPath id="SVGID_2_">
		<use xlink:href="#SVGID_1_"  style="overflow:visible;"/>
	</clipPath>
	<rect y="102" style="clip-path:url(#SVGID_2_);fill:#1A6C82;" width="128" height="26"/>
	<rect y="26" style="clip-path:url(#SVGID_2_);fill:#81C7D3;" width="128" height="25"/>
	<rect style="clip-path:url(#SVGID_2_);fill:#1A6C82;" width="128" height="26"/>
	<rect y="77" style="clip-path:url(#SVGID_2_);fill:#A9434E;" width="128" height="25"/>
	<rect y="51" style="clip-path:url(#SVGID_2_);fill:#C7B299;" width="128" height="26"/>
</g>
<g>
	<path style="fill:#FFFFFF;" d="M99.46,37.83L88.75,48.04c-7.29-7.7-15.48-11.55-24.59-11.55c-7.69,0-14.16,2.63-19.42,7.88
		c-5.26,5.25-7.9,11.73-7.9,19.43c0,5.36,1.17,10.13,3.5,14.29c2.33,4.16,5.63,7.43,9.89,9.8c4.26,2.37,9,3.56,14.21,3.56
		c4.44,0,8.5-0.83,12.18-2.49c3.68-1.66,7.72-4.68,12.13-9.06l10.38,10.83c-5.94,5.8-11.56,9.82-16.84,12.06
		c-5.29,2.24-11.32,3.36-18.1,3.36c-12.51,0-22.74-3.96-30.71-11.89c-7.97-7.93-11.95-18.09-11.95-30.49
		c0-8.02,1.81-15.15,5.44-21.38c3.63-6.23,8.82-11.25,15.59-15.04c6.76-3.79,14.05-5.69,21.85-5.69c6.64,0,13.02,1.4,19.17,4.2
		S95.01,32.66,99.46,37.83z"/>
</g>
</svg>
